<?xml version="1.0" encoding="iso-8859-1"?>
<!-- Generator: Adobe Illustrator 17.1.0, SVG Export Plug-In . SVG Version: 6.00 Build 0)  -->
<!DOCTYPE svg PUBLIC "-//W3C//DTD SVG 1.1//EN" "http://www.w3.org/Graphics/SVG/1.1/DTD/svg11.dtd">
<svg version="1.1" xmlns="http://www.w3.org/2000/svg" xmlns:xlink="http://www.w3.org/1999/xlink" x="0px" y="0px"
	 viewBox="0 0 224.968 94.04" style="enable-background:new 0 0 224.968 94.04;" xml:space="preserve">
<g id="Layer_5">
	<g>
		<g>
			<g>
				<path style="fill:#F1F2F2;" d="M14.503,67.065l-1.302,2.102c-1.751-1.599-3.16-2.398-4.226-2.398
					c-2.101,0-4.347,2.01-6.738,6.03V86H0V64.987h2.238v5.527H2.33c2.513-3.958,4.964-5.938,7.355-5.938
					C11.055,64.576,12.661,65.406,14.503,67.065z"/>
				<path style="fill:#F1F2F2;" d="M33.438,74.717H16.879c-0.045,0.366-0.068,0.731-0.068,1.097c0,2.345,0.837,4.332,2.513,5.961
					c1.675,1.63,3.654,2.444,5.938,2.444c2.665,0,5.269-1.042,7.811-3.129v2.535c-2.406,1.858-5.101,2.787-8.085,2.787
					c-3.03,0-5.535-1.051-7.514-3.152c-1.98-2.102-2.969-4.773-2.969-8.017c0-3.076,0.914-5.622,2.741-7.64
					c1.827-2.017,4.126-3.026,6.897-3.026c2.604,0,4.804,0.91,6.601,2.729C32.54,69.125,33.438,71.595,33.438,74.717z
					 M17.176,72.912h13.612c-0.791-4.096-3.007-6.144-6.646-6.144c-1.721,0-3.209,0.537-4.465,1.61
					C18.421,69.452,17.587,70.964,17.176,72.912z"/>
				<path style="fill:#F1F2F2;" d="M40.176,64.987v3.654h0.091c1.751-2.711,4.058-4.065,6.92-4.065c2.375,0,4.271,0.761,5.688,2.284
					c1.416,1.523,2.124,3.632,2.124,6.327V86h-2.238V74.031c0-4.842-1.904-7.263-5.71-7.263c-2.786,0-5.078,1.5-6.875,4.499V86
					h-2.238V64.987H40.176z"/>
				<path style="fill:#F1F2F2;" d="M77.818,54.29l1.163,0.668V86H76.72v-1.645c-1.919,1.371-3.99,2.056-6.213,2.056
					c-2.984,0-5.501-1.054-7.548-3.164c-2.048-2.108-3.072-4.701-3.072-7.777c0-3.121,1.009-5.717,3.026-7.789
					c2.018-2.07,4.549-3.106,7.594-3.106c1.934,0,4.005,0.563,6.213,1.69V53.665L77.818,54.29z M76.72,82.3V68.733
					c-2.01-1.31-4.051-1.964-6.121-1.964c-2.421,0-4.416,0.803-5.984,2.41c-1.568,1.606-2.353,3.658-2.353,6.155
					c0,2.543,0.837,4.66,2.512,6.35c1.675,1.69,3.769,2.535,6.281,2.535C73.004,84.218,74.893,83.579,76.72,82.3z"/>
				<path style="fill:#F1F2F2;" d="M102.62,74.717H86.062c-0.046,0.366-0.068,0.731-0.068,1.097c0,2.345,0.837,4.332,2.513,5.961
					c1.675,1.63,3.654,2.444,5.938,2.444c2.664,0,5.268-1.042,7.811-3.129v2.535c-2.406,1.858-5.101,2.787-8.085,2.787
					c-3.03,0-5.535-1.051-7.514-3.152c-1.98-2.102-2.969-4.773-2.969-8.017c0-3.076,0.913-5.622,2.741-7.64
					c1.827-2.017,4.126-3.026,6.897-3.026c2.604,0,4.804,0.91,6.601,2.729C101.722,69.125,102.62,71.595,102.62,74.717z
					 M86.359,72.912h13.613c-0.792-4.096-3.008-6.144-6.647-6.144c-1.721,0-3.209,0.537-4.465,1.61
					C87.603,69.452,86.77,70.964,86.359,72.912z"/>
				<path style="fill:#F1F2F2;" d="M122.036,64.987l0.182,0.708l-13.812,18.249h13.812V86h-17.29l-0.251-0.708l13.939-18.227
					h-13.049v-2.078H122.036z"/>
			</g>
		</g>
	</g>
</g>
<g id="Layer_4">
	<g>
		<path style="fill:#F1F2F2;" d="M126.382,64.143h12.203v0.697h-4.135l6.506,15.622l6.756-15.622h-4.135v-0.697h7.666v0.697h-2.723
			l-9.531,22.29l-9.178-22.29h-3.43V64.143z"/>
		<path style="fill:#F1F2F2;" d="M154.974,52.55c0-0.729,0.26-1.351,0.781-1.866c0.521-0.514,1.152-0.771,1.891-0.771
			c0.74,0,1.369,0.257,1.893,0.771c0.52,0.515,0.781,1.137,0.781,1.866c0,0.73-0.262,1.352-0.781,1.866
			c-0.523,0.515-1.152,0.771-1.893,0.771c-0.738,0-1.369-0.257-1.891-0.771C155.233,53.903,154.974,53.28,154.974,52.55z"/>
		<path style="fill:#F1F2F2;" d="M171.312,73.149c0,0.332-0.008,0.671-0.025,1.02c-0.016,0.349-0.025,0.789-0.025,1.319
			c0,1.094,0.068,2.239,0.203,3.433c0.133,1.194,0.428,2.272,0.883,3.234c0.453,0.962,1.125,1.758,2.016,2.388
			c0.891,0.63,2.076,0.945,3.557,0.945c1.479,0,2.697-0.215,3.654-0.647c0.959-0.431,1.715-0.953,2.27-1.567
			c0.555-0.614,0.967-1.235,1.236-1.866c0.268-0.629,0.471-1.144,0.606-1.542l0.756,0.149c-0.102,0.366-0.295,0.888-0.58,1.567
			c-0.285,0.68-0.74,1.36-1.361,2.04c-0.623,0.68-1.463,1.277-2.521,1.791c-1.059,0.514-2.43,0.772-4.109,0.772
			c-1.682,0-3.236-0.267-4.664-0.797c-1.43-0.53-2.666-1.293-3.707-2.288c-1.043-0.995-1.85-2.181-2.42-3.558
			c-0.572-1.376-0.857-2.911-0.857-4.602c0-1.459,0.293-2.877,0.881-4.254c0.588-1.376,1.394-2.595,2.422-3.657
			c1.025-1.061,2.227-1.916,3.605-2.562c1.377-0.647,2.857-0.97,4.438-0.97c0.941,0,1.949,0.167,3.025,0.498
			c1.076,0.332,2.076,0.871,3,1.617c0.924,0.747,1.697,1.734,2.32,2.96c0.621,1.228,0.934,2.753,0.934,4.578H171.312z M181.7,72.452
			c0.066-0.464,0.102-0.896,0.102-1.293c0-0.398,0-0.812,0-1.244c0-1.127-0.109-2.056-0.328-2.786
			c-0.219-0.729-0.521-1.31-0.908-1.741c-0.387-0.431-0.857-0.738-1.412-0.921c-0.555-0.182-1.152-0.274-1.789-0.274
			c-1.145,0-2.086,0.224-2.824,0.672c-0.74,0.448-1.328,1.053-1.766,1.816c-0.438,0.763-0.766,1.642-0.982,2.637
			c-0.221,0.995-0.363,2.04-0.43,3.135H181.7z"/>
		<path style="fill:#F1F2F2;" d="M187.196,64.143h12.154v0.697h-4.186l5.648,15.523l5.244-12.289l-1.262-3.234h-2.117v-0.697h10.035
			v0.697h-3.379l5.85,15.424l6.303-15.424h-4.74v-0.697h8.221v0.697h-2.674l-9.025,22.29l-6.859-18.062l-7.664,18.062l-8.119-22.29
			h-3.43V64.143z"/>
	</g>
</g>
<g id="Layer_3">
	<rect x="157.282" y="58.206" style="fill:#F1F2F2;" width="0.729" height="35.833"/>
	<g>
		<path style="fill-rule:evenodd;clip-rule:evenodd;fill:#F1F2F2;" d="M161.646,49.744c0.383-0.501,0.736-0.966,1.092-1.434
			c1.855,1.846,1.98,5.541,0.316,7.978c-1.721,2.519-5.184,3.702-7.676,2.573c0.328-0.538,0.652-1.068,1.014-1.659
			c-0.441-0.178-0.869-0.35-1.365-0.55c-0.379,0.512-0.756,1.024-1.242,1.686c-0.695-0.762-1.432-1.425-1.975-2.22
			c-0.32-0.468-0.611-1.589-1.123-1.588c-11.062,0.011-22.125,0.009-33.186,0.009c-10.865,0-21.648,0.774-32.511,0.782
			c-1.062,0.002-2.552-0.031-2.552-0.031s-3.286-1.677-4.654-2.314c-0.262-0.122-0.51-0.279-0.903-0.497
			c0.312-0.216,0.501-0.392,0.723-0.495c1.79-0.84,4.709-2.819,4.709-2.819s1.96-0.031,2.552-0.031
			c21.927-0.01,43.752,1.158,65.677,1.169c0.605,0.001,0.998-1.104,1.371-1.689c0.984-1.543,2.449-2.489,4.281-2.912
			c0-0.344,0-0.663,0-0.981c0-25.199,0.006-10.398-0.01-35.598c0-1.249,0.098-2.455,0.457-3.655c0.477-1.586,0.885-3.19,1.336-4.783
			c0.068-0.239,0.207-0.456,0.312-0.684c0.066,0.001,0.133,0.004,0.201,0.007c0.117,0.304,0.264,0.601,0.35,0.915
			c0.506,1.832,1.01,3.666,1.486,5.506c0.115,0.448,0.172,0.923,0.172,1.386c0.008,25.845,0.01,11.689-0.002,37.533
			c0,0.626-0.01,1.166,0.727,1.41c0.438,0.145,0.436,0.481,0.17,0.822c-0.047,0.06-0.096,0.115-0.139,0.175
			C160.461,48.836,160.461,48.836,161.646,49.744z M157.724,48.138c-2.564-0.105-4.584,1.693-4.641,4.249
			c-0.053,2.4,1.592,4.523,4.451,4.538c2.445,0.012,4.369-1.533,4.5-4.356C162.142,50.222,160.226,48.158,157.724,48.138z"/>
	</g>
</g>
<g id="Layer_2" style="display:none;">
</g>
</svg>
